<?xml version="1.0" encoding="UTF-8" standalone="no"?>
<!DOCTYPE svg PUBLIC "-//W3C//DTD SVG 1.1//EN" "http://www.w3.org/Graphics/SVG/1.1/DTD/svg11.dtd">
<svg version="1.1" xmlns="http://www.w3.org/2000/svg" xmlns:xlink="http://www.w3.org/1999/xlink" preserveAspectRatio="xMidYMid meet" viewBox="0 0 640 640" width="64" height="64"><defs><path d="M80.01 269.08C91.59 269.08 98.83 269.08 101.73 269.08C158.21 269.08 202.65 220.86 198.04 164.57C198.04 164.52 198.03 164.4 198.01 164.22L489.81 164.22L489.81 371.89L80.01 371.89L80.01 269.08Z" id="b2zoh7aurs"></path><path d="M505.32 386L241.99 386C251.76 389.71 257.87 392.04 260.31 392.97C272.71 397.69 282.73 407.15 288.14 419.26C289.16 421.56 291.73 427.29 295.83 436.47L476.16 437.59C483.22 426.9 487.63 420.22 489.4 417.55C510.25 386 558.49 393.33 569.02 429.65C569.46 431.16 570.55 434.93 572.3 440.95L621.19 437.59C622.24 364.82 622.9 319.35 623.16 301.16C623.4 284.6 620.34 268.17 614.14 252.82C609.23 240.65 599.73 217.1 593.78 202.35C591.25 196.07 585.15 191.96 578.38 191.96C568.64 191.96 544.29 191.96 505.32 191.96L505.32 386Z" id="a479o4gef9"></path><path d="M78.47 436.59L190.19 436.36C191.77 426.09 194.77 416.75 199.2 408.33C203.62 399.91 214.54 392.5 231.95 386.12C226.95 385.92 212.91 385.84 189.85 385.89C166.78 385.93 129.62 386.01 78.36 386.12L78.47 436.59Z" id="j1qkcJDOgh"></path><path d="M275.35 433.22C275.35 449.62 260.4 462.94 241.99 462.94C223.58 462.94 208.64 449.62 208.64 433.22C208.64 416.81 223.58 403.49 241.99 403.49C260.4 403.49 275.35 416.81 275.35 433.22Z" id="f5FcgwPPDL"></path><path d="M559.17 440.95C559.17 457.36 544.22 470.68 525.81 470.68C507.41 470.68 492.46 457.36 492.46 440.95C492.46 424.55 507.41 411.23 525.81 411.23C544.22 411.23 559.17 424.55 559.17 440.95Z" id="b3pkrGtwyX"></path><path d="M263.06 433.22C263.06 443.74 253.62 452.28 241.99 452.28C230.36 452.28 220.92 443.74 220.92 433.22C220.92 422.69 230.36 414.15 241.99 414.15C253.62 414.15 263.06 422.69 263.06 433.22Z" id="a1rVIJ98Uv"></path><path d="M546.88 440.95C546.88 451.48 537.44 460.02 525.81 460.02C514.19 460.02 504.75 451.48 504.75 440.95C504.75 430.43 514.19 421.89 525.81 421.89C537.44 421.89 546.88 430.43 546.88 440.95Z" id="beIVTbwZd"></path><path d="M521.99 310.85L606.25 310.85C605.65 297.83 605.27 289.69 605.12 286.43C604.32 269.25 599.96 252.42 592.31 237.02C589.95 232.27 591.15 234.69 587.96 228.27C583.39 219.08 574.02 213.27 563.76 213.27C558.19 213.27 544.26 213.27 521.99 213.27L521.99 310.85Z" id="af1cnk9kJ"></path><path d="M173.62 203.06C169.41 209.81 166.78 214.03 165.73 215.72C150.3 240.47 122.43 254.62 93.35 252.47C80.08 251.49 101.13 253.04 91.25 252.31C53.54 249.53 22.6 221.35 16.32 184.07C14.22 171.67 18.9 199.37 16.87 187.33C10.46 149.34 31.66 112.08 67.59 98.18C76.26 94.82 57.53 102.07 70.45 97.07C95.81 87.26 124.38 90.54 146.86 105.85C149.48 107.64 141.53 102.22 149.17 107.43C156.29 112.28 162.33 118.55 166.91 125.84C168.09 127.72 171.03 132.41 175.74 139.9L185.31 135.81L178.84 164.18L150.76 154.2L164.01 146.26C159.33 139.75 156.41 135.68 155.24 134.05C152.61 130.4 149.51 127.13 146 124.32C139.66 119.25 145.32 123.78 143.83 122.58C125.44 107.88 100.79 103.66 78.56 111.41C68.75 114.83 84.42 109.37 76.95 111.97C48.88 121.76 30.76 149.03 32.61 178.7C33.26 189.09 31.88 167.01 32.48 176.63C34.41 207.66 58.83 232.57 89.82 235.12C97.44 235.75 86.09 234.82 98.65 235.85C117.1 237.37 135.22 230.23 147.68 216.53C149.23 214.83 145.86 218.53 150.34 213.6C153.7 209.91 156.29 205.58 157.97 200.88C158.24 200.14 158.9 198.27 159.97 195.29L173.62 203.06Z" id="a1hFOChCCe"></path><path d="M71.33 150.82L101.13 171.88L131.29 146.24L145.36 140.92L136.17 155.44L101.79 177.81L64.64 158.61L58.01 146.16L71.33 150.82Z" id="a5u6bYkQxy"></path></defs><g><g><g><use xlink:href="#b2zoh7aurs" opacity="1" fill="#f9b909" fill-opacity="1"></use><g><use xlink:href="#b2zoh7aurs" opacity="1" fill-opacity="0" stroke="#000000" stroke-width="1" stroke-opacity="1"></use></g></g><g><use xlink:href="#a479o4gef9" opacity="1" fill="#000000" fill-opacity="1"></use><g><use xlink:href="#a479o4gef9" opacity="1" fill-opacity="0" stroke="#000000" stroke-width="1" stroke-opacity="1"></use></g></g><g><use xlink:href="#j1qkcJDOgh" opacity="1" fill="#000000" fill-opacity="1"></use><g><use xlink:href="#j1qkcJDOgh" opacity="1" fill-opacity="0" stroke="#000000" stroke-width="1" stroke-opacity="1"></use></g></g><g><use xlink:href="#f5FcgwPPDL" opacity="1" fill="#000000" fill-opacity="1"></use></g><g><use xlink:href="#b3pkrGtwyX" opacity="1" fill="#000000" fill-opacity="1"></use></g><g><use xlink:href="#a1rVIJ98Uv" opacity="1" fill="#ffffff" fill-opacity="1"></use></g><g><use xlink:href="#beIVTbwZd" opacity="1" fill="#ffffff" fill-opacity="1"></use></g><g><use xlink:href="#af1cnk9kJ" opacity="1" fill="#ffffff" fill-opacity="1"></use><g><use xlink:href="#af1cnk9kJ" opacity="1" fill-opacity="0" stroke="#000000" stroke-width="1" stroke-opacity="1"></use></g></g><g><use xlink:href="#a1hFOChCCe" opacity="1" fill="#a4ff2f" fill-opacity="1"></use><g><use xlink:href="#a1hFOChCCe" opacity="1" fill-opacity="0" stroke="#000000" stroke-width="0" stroke-opacity="1"></use></g></g><g><use xlink:href="#a5u6bYkQxy" opacity="1" fill="#000000" fill-opacity="1"></use><g><use xlink:href="#a5u6bYkQxy" opacity="1" fill-opacity="0" stroke="#000000" stroke-width="1" stroke-opacity="1"></use></g></g></g></g></svg>