<?xml version="1.0" encoding="UTF-8" standalone="no"?>
<!DOCTYPE svg PUBLIC "-//W3C//DTD SVG 1.1//EN" "http://www.w3.org/Graphics/SVG/1.1/DTD/svg11.dtd">
<svg version="1.1" xmlns="http://www.w3.org/2000/svg" xmlns:xlink="http://www.w3.org/1999/xlink" preserveAspectRatio="xMidYMid meet" viewBox="0 0 640 640" width="40" height="40"><defs><path d="M276.36 490.73L377.83 490.73L377.83 523.08L276.36 523.08L276.36 490.73Z" id="bSdYJdjpK"></path><path d="M151.71 196.54C158.47 195.55 164.75 200.22 165.74 206.98C174.95 269.81 200.79 446.09 210 508.92C210.99 515.68 206.31 521.96 199.56 522.95C197.11 523.31 202 522.59 199.56 522.95C192.8 523.94 186.52 519.26 185.53 512.51C176.32 449.67 150.49 273.4 141.28 210.56C140.28 203.81 144.96 197.53 151.71 196.54C154.16 196.18 149.27 196.9 151.71 196.54Z" id="a1ywiM7WH"></path><path d="M466.95 502.49C466.95 527.65 445.54 548.08 419.16 548.08C392.78 548.08 371.36 527.65 371.36 502.49C371.36 477.33 392.78 456.9 419.16 456.9C445.54 456.9 466.95 477.33 466.95 502.49Z" id="eaOioMbmo"></path><path d="M280.78 503.96C280.78 529.12 259.36 549.55 232.98 549.55C206.6 549.55 185.19 529.12 185.19 503.96C185.19 478.8 206.6 458.37 232.98 458.37C259.36 458.37 280.78 478.8 280.78 503.96Z" id="bmFMsv3SP"></path><path d="M260.19 502.49C260.19 516.69 248 528.23 232.98 528.23C217.97 528.23 205.78 516.69 205.78 502.49C205.78 488.29 217.97 476.76 232.98 476.76C248 476.76 260.19 488.29 260.19 502.49Z" id="brgjk6Jjd"></path><path d="M446.36 502.49C446.36 516.69 434.17 528.23 419.16 528.23C404.14 528.23 391.95 516.69 391.95 502.49C391.95 488.29 404.14 476.76 419.16 476.76C434.17 476.76 446.36 488.29 446.36 502.49Z" id="atgL91Von"></path><path d="M154.3 196.41C160.8 196.41 166.07 201.67 166.07 208.17C166.07 210.52 166.07 205.82 166.07 208.17C166.07 214.67 160.8 219.94 154.3 219.94C138.72 219.94 103.72 219.94 88.13 219.94C81.63 219.94 76.36 214.67 76.36 208.17C76.36 205.82 76.36 210.52 76.36 208.17C76.36 201.67 81.63 196.41 88.13 196.41C103.72 196.41 138.72 196.41 154.3 196.41Z" id="d3xRpTxFUh"></path><path d="M522.8 358.88C526.04 358.58 528.9 360.96 529.2 364.2C529.53 367.71 529.96 372.4 530.28 375.91C530.58 379.15 528.2 382.01 524.97 382.31C456.61 388.63 257.4 407.04 189.05 413.35C185.81 413.65 182.95 411.27 182.65 408.04C182.32 404.52 181.89 399.84 181.57 396.32C181.27 393.09 183.65 390.22 186.88 389.92C255.24 383.61 454.45 365.2 522.8 358.88Z" id="a25qvmNmJ4"></path><path d="M554.11 196.62C560.82 197.89 565.23 204.36 563.97 211.07C557.48 245.39 540.32 336.21 533.84 370.54C532.57 377.25 526.1 381.66 519.4 380.39C516.97 379.93 521.83 380.85 519.4 380.39C512.69 379.12 508.28 372.66 509.54 365.95C516.03 331.62 533.19 240.8 539.67 206.48C540.94 199.77 547.4 195.36 554.11 196.62C556.54 197.08 551.68 196.16 554.11 196.62Z" id="a1a8Umo84b"></path><path d="M267.42 113.02C278.36 111.5 288.46 119.14 289.98 130.08C296.18 174.77 312.03 289.03 318.23 333.72C319.75 344.66 312.11 354.76 301.17 356.28C293.77 357.31 291.38 357.64 283.98 358.67C273.04 360.18 262.94 352.54 261.42 341.6C255.22 296.91 239.37 182.66 233.17 137.97C231.66 127.02 239.29 116.92 250.24 115.41C257.64 114.38 260.02 114.05 267.42 113.02Z" id="b3cY44Lnyf"></path><path d="M397.7 97.03C408.65 95.63 418.67 103.38 420.08 114.33C425.81 159.08 440.47 273.5 446.2 318.25C447.6 329.21 439.86 339.23 428.9 340.63C421.49 341.58 419.1 341.89 411.69 342.84C400.73 344.24 390.71 336.5 389.31 325.54C383.58 280.79 368.92 166.37 363.19 121.62C361.79 110.66 369.53 100.64 380.49 99.24C387.9 98.29 390.29 97.98 397.7 97.03Z" id="aq7MOajfQ"></path><path d="M371.34 203.51C378.85 202.41 385.84 207.61 386.94 215.13C388.13 223.29 389.72 234.18 390.91 242.34C392.01 249.85 386.81 256.84 379.3 257.93C362.56 260.38 325.97 265.73 309.24 268.18C301.73 269.27 294.75 264.07 293.65 256.56C292.45 248.4 290.86 237.51 289.67 229.35C288.57 221.83 293.77 214.85 301.29 213.75C318.02 211.31 354.61 205.96 371.34 203.51Z" id="gfvS3C6bW"></path></defs><g><g><g><use xlink:href="#bSdYJdjpK" opacity="1" fill="#ffffff" fill-opacity="1"></use></g><g><use xlink:href="#a1ywiM7WH" opacity="1" fill="#ffffff" fill-opacity="1"></use></g><g><use xlink:href="#eaOioMbmo" opacity="1" fill="#ffffff" fill-opacity="1"></use></g><g><use xlink:href="#bmFMsv3SP" opacity="1" fill="#ffffff" fill-opacity="1"></use></g><g><use xlink:href="#brgjk6Jjd" opacity="1" fill="#ff8605" fill-opacity="1"></use></g><g><use xlink:href="#atgL91Von" opacity="1" fill="#ff8605" fill-opacity="1"></use></g><g><use xlink:href="#d3xRpTxFUh" opacity="1" fill="#ffffff" fill-opacity="1"></use></g><g><use xlink:href="#a25qvmNmJ4" opacity="1" fill="#ffffff" fill-opacity="1"></use></g><g><use xlink:href="#a1a8Umo84b" opacity="1" fill="#ffffff" fill-opacity="1"></use></g><g><use xlink:href="#b3cY44Lnyf" opacity="1" fill="#ff8605" fill-opacity="1"></use></g><g><use xlink:href="#aq7MOajfQ" opacity="1" fill="#ff8605" fill-opacity="1"></use></g><g><use xlink:href="#gfvS3C6bW" opacity="1" fill="#ff8605" fill-opacity="1"></use></g></g></g></svg>