<?xml version="1.0" encoding="UTF-8" standalone="no"?>
<!DOCTYPE svg PUBLIC "-//W3C//DTD SVG 1.1//EN" "http://www.w3.org/Graphics/SVG/1.1/DTD/svg11.dtd">
<svg version="1.1" xmlns="http://www.w3.org/2000/svg" xmlns:xlink="http://www.w3.org/1999/xlink" preserveAspectRatio="xMidYMid meet" viewBox="0 0 640 640" width="32" height="32"><defs><path d="M254.87 152.74L254.87 326.72L296.38 371.11C296.42 371.03 296.45 370.98 296.46 370.96C305.09 353.71 317.59 338.69 332.99 327.06C333.05 327.01 333.2 326.9 333.44 326.72L333.44 152.74L380.88 152.74L296.38 39.16L207.43 152.74L254.87 152.74Z" id="a3spmhh6b3"></path><path d="M498 252.54L465.61 190.78L594.53 241.86L546.01 372.86L519.43 314.98C499.53 322.42 487.09 327.07 482.12 328.93C378.03 367.84 309.05 467.28 309.05 578.4C309.05 581.7 309.05 589.95 309.05 603.14L230.67 603.14C231.14 589.75 231.43 581.38 231.55 578.03C237.04 422.49 345.37 289.59 496.62 252.87C496.81 252.83 497.26 252.72 498 252.54Z" id="d15v8pIYJW"></path><path d="M74.19 259.7L35.14 275.78L83.38 165.51L185.61 219.49L150 237.87C161.97 265.99 169.45 283.57 172.44 290.6C187.71 326.49 214.04 356.57 247.59 376.46C251.43 378.74 261.01 384.42 276.35 393.51C274.31 396.31 273.04 398.06 272.53 398.76C255.56 422.06 244.04 448.87 238.84 477.22C238.82 477.32 238.78 477.56 238.71 477.94C227.7 469.13 220.82 463.62 218.06 461.42C177.69 429.11 144.21 389.04 119.59 343.57C113.54 332.38 98.4 304.43 74.19 259.7Z" id="e1S1qYoub0"></path></defs><g><g><g><use xlink:href="#a3spmhh6b3" opacity="1" fill="#ffc401" fill-opacity="1"></use><g><use xlink:href="#a3spmhh6b3" opacity="1" fill-opacity="0" stroke="#000000" stroke-width="1" stroke-opacity="1"></use></g></g><g><use xlink:href="#d15v8pIYJW" opacity="1" fill="#f57f2d" fill-opacity="1"></use><g><use xlink:href="#d15v8pIYJW" opacity="1" fill-opacity="0" stroke="#000000" stroke-width="1" stroke-opacity="1"></use></g></g><g><use xlink:href="#e1S1qYoub0" opacity="1" fill="#ffde00" fill-opacity="1"></use><g><use xlink:href="#e1S1qYoub0" opacity="1" fill-opacity="0" stroke="#000000" stroke-width="1" stroke-opacity="1"></use></g></g></g></g></svg>